<?xml version="1.0" encoding="utf-8"?>
<!-- Generator: Adobe Illustrator 21.0.0, SVG Export Plug-In . SVG Version: 6.00 Build 0)  -->
<svg version="1.1" id="Layer_1" xmlns="http://www.w3.org/2000/svg" xmlns:xlink="http://www.w3.org/1999/xlink" x="0px" y="0px"
	 viewBox="0 0 256 256" style="enable-background:new 0 0 256 256;" xml:space="preserve">
<style type="text/css">
	.st0{opacity:0.93;}
	.st1{fill:#EFAF00;}
	.st2{fill:#7C5B00;}
	.st3{opacity:0.15;}
	.st4{fill:#69C61D;}
	.st5{fill:#37670F;}
	.st6{fill:#00B8DB;}
	.st7{fill:url(#SVGID_1_);}
	.st8{fill:#006072;}
</style>
<g>
	<g>
		<g class="st0">
			<g>
				<g>
					<path class="st1" d="M128,89.5c3.8,0,7.5,1,10.4,3l92.3,65.2c5.8,4.1,5.8,10.7,0,14.7l-92.3,65.2c-2.9,2-6.7,3-10.4,3
						c-3.8,0-7.5-1-10.4-3l-92.3-65.2c-5.8-4.1-5.8-10.7,0-14.7l92.3-65.2C120.5,90.5,124.2,89.5,128,89.5z"/>
				</g>
			</g>
			<path class="st2" d="M235,165.5c0,0.4-0.1,0.7-0.1,1.1c0,0.1,0,0.3-0.1,0.4c0,0.1-0.1,0.2-0.1,0.3c-0.1,0.2-0.1,0.4-0.2,0.6
				c0,0.1-0.1,0.2-0.1,0.3c-0.1,0.1-0.1,0.3-0.2,0.4c-0.1,0.2-0.2,0.4-0.4,0.7c-0.1,0.1-0.2,0.3-0.3,0.4c-0.1,0.2-0.3,0.4-0.5,0.6
				c-0.1,0.1-0.2,0.2-0.3,0.4c-0.2,0.2-0.4,0.4-0.6,0.6c-0.1,0.1-0.2,0.2-0.3,0.3c-0.3,0.3-0.7,0.6-1.1,0.9l-92.3,65.2
				c-0.6,0.4-1.2,0.7-1.8,1.1c-0.1,0.1-0.2,0.1-0.3,0.2c-0.3,0.2-0.7,0.3-1,0.4c-0.1,0.1-0.3,0.1-0.4,0.2c-0.5,0.2-0.9,0.3-1.4,0.5
				c0,0-0.1,0-0.1,0c-0.6,0.2-1.3,0.3-1.9,0.4c-0.1,0-0.3,0-0.4,0.1c-0.6,0.1-1.2,0.2-1.8,0.2c-0.4,0-0.8,0-1.2,0
				c-0.4,0-0.7,0-1.1,0c-0.6,0-1.2-0.1-1.9-0.2c-0.1,0-0.2,0-0.2,0c-0.7-0.1-1.4-0.3-2.1-0.5c-0.1,0-0.1,0-0.2,0
				c-0.3-0.1-0.5-0.2-0.8-0.2c-0.2-0.1-0.4-0.1-0.6-0.2c-0.3-0.1-0.5-0.2-0.8-0.3c-0.2-0.1-0.3-0.1-0.5-0.2
				c-0.3-0.1-0.5-0.3-0.8-0.4c-0.1-0.1-0.3-0.1-0.4-0.2c-0.4-0.2-0.8-0.5-1.1-0.7l-92.3-65.2c-2.9-2-4.3-4.7-4.3-7.4v9.9
				c0,2.7,1.4,5.3,4.3,7.4l92.3,65.2c0.4,0.3,0.7,0.5,1.1,0.7c0.1,0.1,0.3,0.1,0.4,0.2c0.3,0.1,0.5,0.3,0.8,0.4
				c0.2,0.1,0.3,0.1,0.5,0.2c0.3,0.1,0.5,0.2,0.8,0.3c0.2,0.1,0.4,0.1,0.6,0.2c0.2,0.1,0.5,0.2,0.7,0.2c0,0,0,0,0.1,0
				c0,0,0.1,0,0.1,0c0.7,0.2,1.4,0.3,2.1,0.5c0.1,0,0.1,0,0.2,0c0,0,0.1,0,0.1,0c0.6,0.1,1.2,0.1,1.9,0.2c0.1,0,0.1,0,0.2,0
				c0.3,0,0.6,0,0.9,0c0.4,0,0.8,0,1.1,0c0,0,0.1,0,0.1,0c0.6,0,1.2-0.1,1.8-0.2c0.1,0,0.1,0,0.2,0c0.1,0,0.1,0,0.2,0
				c0.7-0.1,1.3-0.2,1.9-0.4c0,0,0.1,0,0.1,0c0,0,0,0,0,0c0.5-0.1,1-0.3,1.4-0.5c0.1,0,0.2-0.1,0.4-0.2c0.3-0.1,0.7-0.3,1-0.4
				c0.1,0,0.1,0,0.2-0.1c0.1,0,0.1-0.1,0.2-0.1c0.6-0.3,1.2-0.7,1.8-1.1l92.3-65.2c0.4-0.3,0.8-0.6,1.1-0.9c0.1-0.1,0.2-0.2,0.3-0.3
				c0.2-0.2,0.4-0.4,0.6-0.6c0,0,0.1-0.1,0.1-0.1c0.1-0.1,0.1-0.2,0.2-0.2c0.2-0.2,0.3-0.4,0.5-0.6c0.1-0.1,0.2-0.3,0.3-0.4
				c0.1-0.2,0.3-0.4,0.4-0.7c0-0.1,0.1-0.2,0.1-0.2c0-0.1,0-0.1,0.1-0.2c0-0.1,0.1-0.2,0.1-0.3c0.1-0.2,0.1-0.4,0.2-0.6
				c0-0.1,0.1-0.2,0.1-0.3c0-0.1,0-0.1,0.1-0.2c0-0.1,0-0.1,0-0.2c0.1-0.4,0.1-0.7,0.1-1.1c0-0.1,0-0.1,0-0.2c0-0.1,0-0.1,0-0.2
				v-9.9C235,165.3,235,165.4,235,165.5z"/>
		</g>
		<path class="st3" d="M218.4,149.1l-29.8,21l-50.2,35.5c-0.6,0.4-1.2,0.8-1.8,1.1c-0.1,0-0.1,0.1-0.2,0.1c0,0-0.1,0-0.2,0.1
			c-0.3,0.2-0.7,0.3-1,0.4c-0.1,0-0.2,0.1-0.4,0.2c-0.5,0.2-0.9,0.3-1.4,0.5c0,0,0,0,0,0c0,0-0.1,0-0.1,0c-0.6,0.2-1.3,0.3-1.9,0.4
			c-0.1,0-0.2,0-0.2,0.1c-0.1,0-0.1,0-0.2,0c-0.6,0.1-1.2,0.2-1.8,0.2h-0.1c-0.4,0-0.8,0-1.1,0c-0.3,0-0.6,0-0.9,0
			c-0.1,0-0.1,0-0.2,0c-0.6,0-1.2-0.1-1.9-0.2c0,0,0,0-0.1,0c-0.1,0-0.1,0-0.2,0c-0.7-0.1-1.4-0.3-2.1-0.5c0,0-0.1,0-0.1,0
			c0,0,0,0-0.1,0c-0.3-0.1-0.5-0.2-0.7-0.2c-0.2-0.1-0.4-0.1-0.6-0.2c-0.3-0.1-0.5-0.2-0.8-0.3c-0.2-0.1-0.4-0.1-0.5-0.2
			c-0.3-0.1-0.5-0.3-0.8-0.4c-0.1-0.1-0.3-0.1-0.4-0.2c-0.4-0.2-0.8-0.5-1.1-0.7l-50.2-35.5L37.6,149l-9.8,6.9l30.1,20.8l57.9,40.2
			c0.4,0.3,0.9,0.6,1.3,0.8c0.2,0.1,0.3,0.2,0.5,0.2c0.3,0.2,0.6,0.3,1,0.5c0.2,0.1,0.4,0.2,0.6,0.3c0.3,0.1,0.6,0.3,0.9,0.4
			c0.2,0.1,0.4,0.1,0.7,0.2c0.3,0.1,0.6,0.2,0.9,0.3c0,0,0,0,0.1,0c0,0,0.1,0,0.1,0c0.8,0.2,1.7,0.4,2.5,0.5c0.1,0,0.1,0,0.2,0
			c0,0,0.1,0,0.1,0c0.7,0.1,1.4,0.2,2.2,0.2c0.1,0,0.1,0,0.2,0c0.4,0,0.7,0,1.1,0c0.4,0,0.9,0,1.3,0c0,0,0.1,0,0.1,0
			c0.7,0,1.4-0.1,2.1-0.2c0.1,0,0.1,0,0.2,0c0.1,0,0.2,0,0.3-0.1c0.8-0.1,1.5-0.3,2.2-0.5c0,0,0.1,0,0.1,0c0,0,0,0,0,0
			c0.6-0.2,1.1-0.3,1.7-0.5c0.1-0.1,0.3-0.1,0.4-0.2c0.4-0.2,0.8-0.3,1.2-0.5c0.1,0,0.1,0,0.2-0.1c0.1,0,0.1-0.1,0.2-0.1
			c0.7-0.4,1.5-0.8,2.1-1.2l57.9-40.2l30-20.8L218.4,149.1z"/>
	</g>
	<g>
		<g class="st0">
			<g>
				<g>
					<path class="st4" d="M128,47.4c3.8,0,7.5,1,10.4,3l92.3,65.2c5.8,4.1,5.8,10.7,0,14.7l-92.3,65.2c-2.9,2-6.6,3-10.4,3
						s-7.5-1-10.4-3l-92.3-65.2c-5.8-4.1-5.8-10.7,0-14.7l92.3-65.2C120.5,48.4,124.2,47.4,128,47.4z"/>
				</g>
			</g>
			<path class="st5" d="M235,123.4c0,0.4-0.1,0.7-0.1,1.1c0,0.1,0,0.3-0.1,0.4c0,0.1-0.1,0.2-0.1,0.3c-0.1,0.2-0.1,0.4-0.2,0.6
				c0,0.1-0.1,0.2-0.1,0.3c-0.1,0.1-0.1,0.3-0.2,0.4c-0.1,0.2-0.2,0.4-0.4,0.7c-0.1,0.1-0.2,0.3-0.3,0.4c-0.1,0.2-0.3,0.4-0.5,0.6
				c-0.1,0.1-0.2,0.2-0.3,0.4c-0.2,0.2-0.4,0.4-0.6,0.6c-0.1,0.1-0.2,0.2-0.3,0.3c-0.3,0.3-0.7,0.6-1.1,0.9l-92.3,65.2
				c-0.6,0.4-1.2,0.8-1.8,1.1c-0.1,0.1-0.2,0.1-0.3,0.2c-0.3,0.2-0.7,0.3-1,0.4c-0.1,0-0.2,0.1-0.4,0.2c-0.5,0.2-0.9,0.3-1.4,0.5
				c0,0-0.1,0-0.1,0c-0.6,0.2-1.3,0.3-1.9,0.4c-0.1,0-0.3,0-0.4,0.1c-0.6,0.1-1.2,0.2-1.8,0.2c-0.4,0-0.8,0-1.2,0
				c-0.4,0-0.7,0-1.1,0c-0.6,0-1.2-0.1-1.9-0.2c-0.1,0-0.2,0-0.2,0c-0.7-0.1-1.5-0.3-2.2-0.5c-0.1,0-0.1,0-0.2,0
				c-0.3-0.1-0.5-0.2-0.8-0.2c-0.2-0.1-0.4-0.1-0.6-0.2c-0.3-0.1-0.5-0.2-0.8-0.3c-0.2-0.1-0.3-0.1-0.5-0.2
				c-0.3-0.1-0.5-0.3-0.8-0.4c-0.1-0.1-0.3-0.1-0.4-0.2c-0.4-0.2-0.8-0.5-1.1-0.7l-92.3-65.2c-2.9-2-4.3-4.7-4.3-7.4v9.9
				c0,2.7,1.4,5.3,4.3,7.4l92.3,65.2c0.4,0.3,0.7,0.5,1.1,0.7c0.1,0.1,0.3,0.1,0.4,0.2c0.3,0.1,0.5,0.3,0.8,0.4
				c0.2,0.1,0.4,0.1,0.5,0.2c0.2,0.1,0.5,0.2,0.7,0.3c0.2,0.1,0.4,0.1,0.6,0.2c0.2,0.1,0.5,0.2,0.7,0.2c0,0,0,0,0,0c0,0,0.1,0,0.1,0
				c0.7,0.2,1.4,0.3,2.2,0.5c0.1,0,0.1,0,0.2,0c0,0,0.1,0,0.1,0c0.6,0.1,1.2,0.1,1.9,0.2c0.1,0,0.1,0,0.2,0c0.3,0,0.6,0,0.9,0
				c0.4,0,0.8,0,1.1,0c0,0,0.1,0,0.1,0c0.6,0,1.2-0.1,1.8-0.2c0.1,0,0.1,0,0.2,0c0.1,0,0.1,0,0.2,0c0.6-0.1,1.3-0.2,1.9-0.4
				c0,0,0.1,0,0.1,0c0,0,0,0,0,0c0.5-0.1,1-0.3,1.4-0.5c0.1,0,0.2-0.1,0.4-0.2c0.3-0.1,0.7-0.3,1-0.4c0.1,0,0.1,0,0.2-0.1
				c0.1,0,0.1-0.1,0.2-0.1c0.6-0.3,1.2-0.7,1.8-1.1l92.3-65.2c0.4-0.3,0.8-0.6,1.1-0.9c0.1-0.1,0.2-0.2,0.3-0.3
				c0.2-0.2,0.4-0.4,0.6-0.6c0,0,0.1-0.1,0.1-0.1c0.1-0.1,0.1-0.2,0.2-0.2c0.2-0.2,0.3-0.4,0.5-0.6c0.1-0.1,0.2-0.3,0.3-0.4
				c0.1-0.2,0.3-0.4,0.4-0.7c0-0.1,0.1-0.2,0.1-0.2c0-0.1,0-0.1,0.1-0.2c0-0.1,0.1-0.2,0.1-0.3c0.1-0.2,0.1-0.4,0.2-0.6
				c0-0.1,0.1-0.2,0.1-0.3c0-0.1,0-0.1,0.1-0.2c0-0.1,0-0.1,0-0.2c0.1-0.4,0.1-0.7,0.1-1.1c0-0.1,0-0.1,0-0.2c0-0.1,0-0.1,0-0.2V123
				C235,123.2,235,123.3,235,123.4z"/>
		</g>
		<path class="st3" d="M218.4,107l-29.8,21l-50.2,35.5c-0.6,0.4-1.2,0.8-1.8,1.1c-0.1,0-0.1,0.1-0.2,0.1c0,0-0.1,0-0.2,0.1
			c-0.3,0.2-0.7,0.3-1,0.4c-0.1,0-0.2,0.1-0.4,0.2c-0.5,0.2-0.9,0.3-1.4,0.5c0,0,0,0,0,0c0,0-0.1,0-0.1,0c-0.6,0.2-1.3,0.3-1.9,0.4
			c-0.1,0-0.2,0-0.2,0.1c-0.1,0-0.1,0-0.2,0c-0.6,0.1-1.2,0.2-1.8,0.2h-0.1c-0.4,0-0.8,0-1.1,0c-0.3,0-0.6,0-0.9,0
			c-0.1,0-0.1,0-0.2,0c-0.6,0-1.2-0.1-1.9-0.2c0,0,0,0-0.1,0c-0.1,0-0.1,0-0.2,0c-0.7-0.1-1.4-0.3-2.1-0.5c0,0-0.1,0-0.1,0
			c0,0,0,0-0.1,0c-0.3-0.1-0.5-0.2-0.7-0.2c-0.2-0.1-0.4-0.1-0.6-0.2c-0.3-0.1-0.5-0.2-0.8-0.3c-0.2-0.1-0.4-0.1-0.5-0.2
			c-0.3-0.1-0.5-0.3-0.8-0.4c-0.1-0.1-0.3-0.1-0.4-0.2c-0.4-0.2-0.8-0.5-1.1-0.7L67.4,128l-29.8-21.1l-9.8,6.9l30.1,20.8l57.9,40.2
			c0.4,0.3,0.9,0.6,1.3,0.8c0.2,0.1,0.3,0.2,0.5,0.2c0.3,0.2,0.6,0.3,1,0.5c0.2,0.1,0.4,0.2,0.6,0.3c0.3,0.1,0.6,0.3,0.9,0.4
			c0.2,0.1,0.4,0.1,0.7,0.2c0.3,0.1,0.6,0.2,0.9,0.3c0,0,0,0,0.1,0c0,0,0.1,0,0.1,0c0.8,0.2,1.7,0.4,2.5,0.5c0.1,0,0.1,0,0.2,0
			c0,0,0.1,0,0.1,0c0.7,0.1,1.4,0.2,2.2,0.2c0.1,0,0.1,0,0.2,0c0.4,0,0.7,0,1.1,0c0.4,0,0.9,0,1.3,0c0,0,0.1,0,0.1,0
			c0.7,0,1.4-0.1,2.1-0.2c0.1,0,0.1,0,0.2,0c0.1,0,0.2,0,0.3-0.1c0.8-0.1,1.5-0.3,2.2-0.5c0,0,0.1,0,0.1,0c0,0,0,0,0,0
			c0.6-0.2,1.1-0.3,1.7-0.5c0.1-0.1,0.3-0.1,0.4-0.2c0.4-0.2,0.8-0.3,1.2-0.5c0.1,0,0.1,0,0.2-0.1c0.1,0,0.1-0.1,0.2-0.1
			c0.7-0.4,1.5-0.8,2.1-1.2l57.9-40.2l30-20.8L218.4,107z"/>
	</g>
	<g class="st0">
		<g>
			<g>
				<path class="st6" d="M128,5.3c3.8,0,7.5,1,10.4,3.1l92.3,65.2c5.8,4.1,5.8,10.7,0,14.7l-92.3,65.2c-2.9,2-6.7,3.1-10.4,3.1
					c-3.8,0-7.5-1-10.4-3.1L25.3,88.3c-5.8-4.1-5.8-10.7,0-14.7l92.3-65.2C120.5,6.3,124.2,5.3,128,5.3z"/>
			</g>
		</g>
		<g>
			<g>
				<linearGradient id="SVGID_1_" gradientUnits="userSpaceOnUse" x1="128" y1="154.9281" x2="128" y2="6.969">
					<stop  offset="0" style="stop-color:#00B8DB"/>
					<stop  offset="0.9904" style="stop-color:#99E3F1"/>
				</linearGradient>
				<path class="st7" d="M128,7c3.7,0,7.4,1,10.2,3l90.3,63.8c5.6,4,5.6,10.4,0,14.4l-90.3,63.8c-2.8,2-6.5,3-10.2,3
					c-3.7,0-7.4-1-10.2-3L27.5,88.1c-5.6-4-5.6-10.4,0-14.4L117.8,10C120.6,8,124.3,7,128,7z"/>
			</g>
		</g>
		<path class="st8" d="M235,81.3c0,0.4-0.1,0.7-0.1,1.1c0,0.1,0,0.3-0.1,0.4c0,0.1-0.1,0.2-0.1,0.3c-0.1,0.2-0.1,0.4-0.2,0.6
			c0,0.1-0.1,0.2-0.1,0.3c-0.1,0.1-0.1,0.3-0.2,0.4c-0.1,0.2-0.2,0.4-0.4,0.7c-0.1,0.1-0.2,0.3-0.3,0.4c-0.1,0.2-0.3,0.4-0.5,0.6
			c-0.1,0.1-0.2,0.2-0.3,0.4c-0.2,0.2-0.4,0.4-0.6,0.6c-0.1,0.1-0.2,0.2-0.3,0.3c-0.3,0.3-0.7,0.6-1.1,0.9l-92.3,65.2
			c-0.6,0.4-1.2,0.8-1.8,1.1c-0.1,0.1-0.2,0.1-0.3,0.2c-0.3,0.2-0.7,0.3-1,0.4c-0.1,0-0.2,0.1-0.4,0.2c-0.5,0.2-0.9,0.3-1.4,0.5
			c0,0-0.1,0-0.1,0c-0.6,0.2-1.3,0.3-1.9,0.4c-0.1,0-0.3,0-0.4,0.1c-0.6,0.1-1.2,0.2-1.8,0.2c-0.4,0-0.8,0-1.2,0c-0.4,0-0.7,0-1.1,0
			c-0.6,0-1.2-0.1-1.9-0.2c-0.1,0-0.2,0-0.2,0c-0.7-0.1-1.4-0.3-2.1-0.5c-0.1,0-0.1,0-0.2,0c-0.3-0.1-0.5-0.2-0.8-0.2
			c-0.2-0.1-0.4-0.1-0.6-0.2c-0.3-0.1-0.5-0.2-0.8-0.3c-0.2-0.1-0.3-0.1-0.5-0.2c-0.3-0.1-0.5-0.3-0.8-0.4c-0.1-0.1-0.3-0.1-0.4-0.2
			c-0.4-0.2-0.8-0.5-1.1-0.7L25.3,88.3c-2.9-2-4.3-4.7-4.3-7.4v9.9c0,2.7,1.4,5.3,4.3,7.4l92.3,65.2c0.4,0.3,0.7,0.5,1.1,0.7
			c0.1,0.1,0.3,0.1,0.4,0.2c0.3,0.1,0.5,0.3,0.8,0.4c0.2,0.1,0.3,0.1,0.5,0.2c0.2,0.1,0.5,0.2,0.8,0.3c0.2,0.1,0.4,0.1,0.6,0.2
			c0.2,0.1,0.5,0.2,0.7,0.2c0,0,0,0,0.1,0c0,0,0.1,0,0.1,0c0.7,0.2,1.4,0.3,2.1,0.5c0.1,0,0.1,0,0.2,0c0,0,0.1,0,0.1,0
			c0.6,0.1,1.2,0.1,1.9,0.2c0.1,0,0.1,0,0.2,0c0.3,0,0.6,0,0.9,0c0.4,0,0.8,0,1.1,0c0,0,0.1,0,0.1,0c0.6,0,1.2-0.1,1.8-0.2
			c0,0,0.1,0,0.2,0c0.1,0,0.1,0,0.2,0c0.6-0.1,1.3-0.2,1.9-0.4c0,0,0.1,0,0.1,0c0,0,0,0,0,0c0.5-0.1,1-0.3,1.4-0.5
			c0.1,0,0.2-0.1,0.4-0.2c0.3-0.1,0.7-0.3,1-0.4c0,0,0.1,0,0.2-0.1c0.1,0,0.1-0.1,0.2-0.1c0.6-0.3,1.2-0.7,1.8-1.1l92.3-65.2
			c0.4-0.3,0.8-0.6,1.1-0.9c0.1-0.1,0.2-0.2,0.3-0.3c0.2-0.2,0.4-0.4,0.6-0.6c0,0,0.1-0.1,0.1-0.1c0.1-0.1,0.1-0.2,0.2-0.2
			c0.2-0.2,0.3-0.4,0.5-0.6c0.1-0.1,0.2-0.3,0.3-0.4c0.1-0.2,0.3-0.4,0.4-0.7c0-0.1,0.1-0.2,0.1-0.2c0-0.1,0-0.1,0.1-0.2
			c0-0.1,0.1-0.2,0.1-0.3c0.1-0.2,0.1-0.4,0.2-0.6c0-0.1,0.1-0.2,0.1-0.3c0-0.1,0-0.1,0.1-0.2c0-0.1,0-0.1,0-0.2
			c0.1-0.4,0.1-0.7,0.1-1.1c0-0.1,0-0.1,0-0.2c0-0.1,0-0.1,0-0.2v-9.9C235,81.1,235,81.2,235,81.3z"/>
	</g>
</g>
</svg>
