<svg xmlns="http://www.w3.org/2000/svg" viewBox="0 0 96 96" role="img" aria-labelledby="title">
  <title>PayPal Reader for WooCommerce</title>
  <defs>
    <linearGradient id="bg" x1="0%" y1="0%" x2="100%" y2="100%">
      <stop offset="0%" stop-color="#003087" />
      <stop offset="100%" stop-color="#009cde" />
    </linearGradient>
  </defs>
  <rect width="96" height="96" rx="20" fill="url(#bg)" />
  <path
    fill="#fff"
    d="M31 23h17.7c11.4 0 18.3 6.7 18.3 16.3 0 10.8-8.4 17.4-19.7 17.4H41l-3 16H24.5L31 23Zm12.7 22.1c5.8 0 9-2.1 9-6.2 0-3.4-2.5-5.2-6.9-5.2h-3.2l-2 11.4h3.1Z"
  />
  <path
    fill="#bfe8ff"
    d="M49.6 36h8.6c9.2 0 14.8 5.2 14.8 12.8 0 8.7-6.9 14.2-16.2 14.2h-4.1l-1.8 10H39.7l4.8-27h5.1Zm6 16.1c3.9 0 6.1-1.5 6.1-4.3 0-2.3-1.7-3.6-4.7-3.6h-2.2l-1.4 7.9h2.2Z"
    opacity="0.9"
  />
</svg>
